PathFileType	4	(X/Y/Z)	s05c0202.trc
DataRate	CameraRate	NumFrames	NumMarkers	Units	OrigDataRate	OrigDataStartFrame	OrigNumFrames
200	200	4	49	mm	200	250	2000
Frame#	Time	racr			lacr			c7			jug			rlel			rdr			llel			ldr			s2			lic			ric			lasi			rasi			rpsi			lpsi			rgt			lgt			rth1			rth2			rth3			rth4			rlfc			rsh1			rsh2			rsh3			rsh4			rlmal			rmmal			rcal			rtoe			rmt5			lth1			lth2			lth4			lth3			llfc			lmfc			lsh1			lsh2			lsh3			lsh4			llmal			lmmal			lcal			ltoe			lmt5			SBIKE			LBIKE			RBIKE			
		X1	Y1	Z1	X2	Y2	Z2	X3	Y3	Z3	X4	Y4	Z4	X5	Y5	Z5	X6	Y6	Z6	X7	Y7	Z7	X8	Y8	Z8	X9	Y9	Z9	X10	Y10	Z10	X11	Y11	Z11	X12	Y12	Z12	X13	Y13	Z13	X14	Y14	Z14	X15	Y15	Z15	X16	Y16	Z16	X17	Y17	Z17	X18	Y18	Z18	X19	Y19	Z19	X20	Y20	Z20	X21	Y21	Z21	X22	Y22	Z22	X23	Y23	Z23	X24	Y24	Z24	X25	Y25	Z25	X26	Y26	Z26	X27	Y27	Z27	X28	Y28	Z28	X29	Y29	Z29	X30	Y30	Z30	X31	Y31	Z31	X32	Y32	Z32	X33	Y33	Z33	X34	Y34	Z34	X35	Y35	Z35	X36	Y36	Z36	X37	Y37	Z37	X38	Y38	Z38	X39	Y39	Z39	X40	Y40	Z40	X41	Y41	Z41	X42	Y42	Z42	X43	Y43	Z43	X44	Y44	Z44	X45	Y45	Z45	X46	Y46	Z46	X47	Y47	Z47	X48	Y48	Z48	X49	Y49	Z49	
250	1.2500	422.563268	1398.944930	-143.428397	431.325197	1401.423689	-434.871667	421.493190	1464.755455	-292.645564	395.862337	1307.058317	-289.314868	505.078773	1160.130010	-39.991851	682.962454	966.370819	-76.974033	465.623705	1142.512018	-552.364865	753.857048	1027.655122	-480.415333	-102.096109	1159.049042	-273.852994	45.652498	1165.465828	-418.030274	53.535955	1188.382970	-141.491538	93.743918	1114.879627	-383.530423	90.056135	1125.830942	-167.600131	-69.076472	1203.995427	-234.160159	-66.486421	1205.356575	-323.129146	7.137855	1064.438908	-100.684078	-28.981929	1063.450535	-444.337819	107.283159	1013.624290	-87.609505	196.044718	1002.678313	-84.338242	265.608061	948.411466	-85.339392	209.455667	1035.243355	-96.838148	403.887549	876.189228	-111.595258	336.086104	787.917857	-90.251923	319.950657	701.019210	-102.539142	266.078530	634.713153	-107.457332	347.826698	691.936898	-127.692136	214.144630	511.885390	-121.383169	227.620837	544.188063	-198.433983	141.833326	479.351055	-167.490977	435.814650	456.139887	-160.130631	334.521287	433.913397	-94.397635	44.566017	941.216272	-466.346786	111.708697	887.674722	-470.424030	142.061818	906.843120	-459.060563	142.776851	802.536587	-473.621452	210.063813	668.342211	-447.934552	204.450391	659.398485	-338.542977	120.308688	575.095985	-466.390309	89.949050	493.914817	-452.131572	20.953422	438.368874	-447.246467	117.126559	478.743970	-429.670787	-44.134431	333.826274	-433.628037	-9.807879	356.038735	-359.360044	-113.493257	306.003016	-388.336925	167.182359	220.265945	-402.794696	54.645019	219.236868	-462.485322	-173.562912	899.080073	-278.603432	-53.474311	79.102033	-474.972435	-53.486162	79.135883	-77.317492	
251	1.2550	422.518831	1398.911421	-143.423503	431.336565	1401.393802	-434.899744	421.485986	1464.726302	-292.643802	395.795453	1307.036205	-289.306384	505.031555	1160.094580	-40.043795	682.964445	966.378264	-76.934482	465.601828	1142.485810	-552.381666	754.011252	1027.664755	-480.455839	-102.163281	1159.088895	-273.897865	45.645241	1165.455389	-418.015615	53.535086	1188.387326	-141.514445	93.712396	1114.865018	-383.537152	90.023847	1125.853495	-167.622351	-69.102922	1203.935865	-234.129747	-66.534880	1205.366303	-323.122266	7.089396	1064.461426	-100.669525	-29.020297	1063.438079	-444.348094	107.261598	1013.657181	-87.610130	196.028382	1002.720570	-84.321668	265.595967	948.453487	-85.327171	209.421812	1035.313838	-96.834245	403.918515	876.287345	-111.582617	336.066505	788.024147	-90.244671	319.919954	701.129621	-102.524396	266.027977	634.868693	-107.465460	347.795635	692.100671	-127.666111	214.062074	512.018178	-121.380149	227.551980	544.314102	-198.453688	141.776736	479.475044	-167.496246	435.746221	456.227749	-160.115639	334.417826	434.047973	-94.385796	44.508789	941.202437	-466.325327	111.643911	887.645871	-470.427474	141.996193	906.808838	-459.063892	142.715319	802.512367	-473.600783	209.964640	668.328375	-447.923081	204.369335	659.361073	-338.542769	120.261249	575.014167	-466.372920	89.914576	493.829255	-452.128329	20.946229	438.279520	-447.231448	117.112069	478.707663	-429.672508	-44.101673	333.705771	-433.624676	-9.781440	355.899846	-359.340481	-113.448765	305.862366	-388.329045	167.244468	220.184493	-402.787303	54.732299	219.119598	-462.474690	-173.613967	899.071843	-278.562972	-53.483196	79.114986	-474.972592	-53.491899	79.148531	-77.304661	
252	1.2600	422.470679	1398.869981	-143.428232	431.313176	1401.355089	-434.901157	421.457422	1464.692747	-292.622794	395.759700	1307.019585	-289.297980	504.977671	1160.060571	-40.049777	682.976430	966.376128	-76.889859	465.569269	1142.462528	-552.408658	753.856269	1027.622010	-480.388075	-102.208718	1159.106949	-273.918685	45.631891	1165.441785	-418.020021	53.474040	1188.400410	-141.522529	93.686732	1114.862930	-383.548157	89.979273	1125.823135	-167.629451	-69.143226	1203.935189	-234.144965	-66.567413	1205.363707	-323.144781	7.041583	1064.446881	-100.720604	-29.057382	1063.441600	-444.359539	107.255270	1013.708532	-87.598525	195.995240	1002.773554	-84.316260	265.620362	948.554001	-85.303271	209.405567	1035.362602	-96.809732	403.882953	876.377848	-111.573720	336.036641	788.120265	-90.240702	319.876254	701.228880	-102.552893	265.972986	634.982343	-107.475131	347.739638	692.194371	-127.690000	213.984665	512.134968	-121.387648	227.455172	544.540998	-198.466295	141.700013	479.605773	-167.489423	435.675199	456.332132	-160.126988	334.349062	434.145241	-94.375248	44.446528	941.185390	-466.326772	111.565328	887.619914	-470.419002	141.941296	906.765150	-459.062812	142.634981	802.477590	-473.594761	209.882646	668.293977	-447.891234	204.275087	659.342223	-338.527096	120.196708	574.924037	-466.351589	89.877259	493.737687	-452.104805	20.947265	438.192939	-447.211813	117.073163	478.639061	-429.637756	-44.049653	333.549953	-433.639173	-9.823691	355.808520	-359.314628	-113.395772	305.711213	-388.314161	167.324481	220.100758	-402.778275	54.797822	218.992214	-462.474923	-173.562345	899.079952	-278.603351	-53.478331	79.120753	-474.954632	-53.487679	79.146607	-77.297911	
253	1.2650	422.458912	1398.829009	-143.395015	431.312636	1401.322298	-434.897414	421.442249	1464.660609	-292.625499	395.742027	1306.998002	-289.286140	504.939566	1160.047668	-40.026983	682.961717	966.382670	-76.849275	465.542158	1142.420665	-552.447746	753.949420	1027.655324	-480.458393	-102.191949	1159.043353	-273.878783	45.606176	1165.438491	-418.039618	53.459527	1188.400803	-141.550145	93.653497	1114.848388	-383.539466	89.937018	1125.839394	-167.647355	-69.169759	1203.935750	-234.158900	-66.596295	1205.385646	-323.157419	7.052801	1064.497818	-100.688139	-29.101627	1063.438075	-444.358292	107.206748	1013.746796	-87.584050	195.969227	1002.835851	-84.307979	265.617331	948.625639	-85.304609	209.401611	1035.428716	-96.813616	403.881645	876.505319	-111.566365	336.004365	788.235988	-90.245678	319.837141	701.391314	-102.526507	265.953408	635.097186	-107.477188	347.716303	692.301964	-127.676099	213.900551	512.288428	-121.381309	227.390351	544.704393	-198.470885	141.630237	479.777336	-167.509823	435.600020	456.454693	-160.099568	334.264913	434.245976	-94.377950	44.393358	941.163388	-466.334146	111.495091	887.592729	-470.416002	141.861945	906.750262	-459.067434	142.539205	802.449200	-473.585563	209.796046	668.250194	-447.878039	204.161743	659.305383	-338.520111	120.125742	574.862584	-466.345863	89.866161	493.660947	-452.111289	20.941005	438.084385	-447.216999	117.040424	478.529288	-429.613005	-44.031788	333.386966	-433.618705	-9.779446	355.678357	-359.312610	-113.331834	305.566417	-388.313354	167.397970	220.001415	-402.787630	54.880837	218.856921	-462.475671	-173.571859	899.081170	-278.573830	-53.477433	79.118515	-474.957981	-53.491462	79.115059	-77.304135	
